<?xml version="1.0" encoding="UTF-8"?>
<svg width="20px" height="16px" viewBox="0 0 20 16" version="1.1" xmlns="http://www.w3.org/2000/svg" xmlns:xlink="http://www.w3.org/1999/xlink">
    <!-- Generator: Sketch 46.2 (44496) - http://www.bohemiancoding.com/sketch -->
    <title>icn_twitter</title>
    <desc>Created with Sketch.</desc>
    <defs></defs>
    <g id="2" stroke="none" stroke-width="1" fill="none" fill-rule="evenodd">
        <g id="1-HOME-1" transform="translate(-145.000000, -623.000000)" fill="#FFFFFF">
            <g id="Social" transform="translate(145.000000, 623.000000)">
                <path d="M17.323,3.906 C17.33,4.076 17.334,4.247 17.334,4.419 C17.334,9.651 13.352,15.683 6.07,15.683 C3.834,15.683 1.753,15.028 0,13.905 C0.31,13.941 0.625,13.96 0.945,13.96 C2.8,13.96 4.507,13.327 5.862,12.265 C4.129,12.233 2.667,11.088 2.164,9.515 C2.405,9.562 2.653,9.587 2.908,9.587 C3.269,9.587 3.619,9.538 3.951,9.448 C2.14,9.084 0.776,7.484 0.776,5.566 L0.776,5.516 C1.31,5.812 1.92,5.99 2.569,6.011 C1.507,5.301 0.808,4.089 0.808,2.716 C0.808,1.99 1.003,1.31 1.344,0.725 C3.297,3.12 6.214,4.697 9.504,4.862 C9.437,4.572 9.402,4.27 9.402,3.959 C9.402,1.773 11.174,0 13.361,0 C14.5,0 15.529,0.481 16.251,1.251 C17.153,1.073 18,0.744 18.765,0.29 C18.47,1.214 17.842,1.99 17.024,2.48 C17.825,2.385 18.588,2.172 19.298,1.857 C18.767,2.651 18.096,3.348 17.323,3.906" id="icn_twitter"></path>
            </g>
        </g>
    </g>
</svg>