<?xml version="1.0" encoding="UTF-8"?>
<svg width="18px" height="18px" viewBox="0 0 18 18" version="1.1" xmlns="http://www.w3.org/2000/svg" xmlns:xlink="http://www.w3.org/1999/xlink">
    <!-- Generator: Sketch 46.2 (44496) - http://www.bohemiancoding.com/sketch -->
    <title>icn_instagram@3x</title>
    <desc>Created with Sketch.</desc>
    <defs></defs>
    <g id="2" stroke="none" stroke-width="1" fill="none" fill-rule="evenodd" stroke-linecap="round">
        <g id="1-HOME-1" transform="translate(-211.000000, -622.000000)" stroke="#FFFFFF" stroke-width="2">
            <g id="Social" transform="translate(145.000000, 623.000000)">
                <g id="icn_instagram" transform="translate(67.000000, 0.000000)">
                    <path d="M11.6958049,8 C11.6958049,10.0411707 10.0410732,11.6958049 8,11.6958049 C5.95892683,11.6958049 4.30419512,10.0410732 4.30419512,8 C4.30419512,5.95892683 5.95892683,4.30419512 8,4.30419512 C10.0410732,4.30419512 11.6958049,5.95892683 11.6958049,8" id="Stroke-1"></path>
                    <path d="M13.3482927,3.53736585 C13.3482927,4.29498537 12.2126244,4.29498537 12.2126244,3.53736585 C12.2126244,2.78050732 13.3482927,2.78050732 13.3482927,3.53736585" id="Stroke-2"></path>
                    <path d="M3.70731707,0 L12.2926829,0 C14.3399024,0 16,2.04721951 16,3.70731707 L16,12.2926829 C16,14.3399024 14.3399415,16 12.2926829,16 L3.70731707,16 C1.66009756,16 0,13.9527805 0,12.2926829 L0,3.70731707 C0,1.66009756 1.66005854,0 3.70731707,0 Z" id="Stroke-3"></path>
                </g>
            </g>
        </g>
    </g>
</svg>